<svg width="78" height="78" viewBox="0 0 78 78" fill="none" xmlns="http://www.w3.org/2000/svg">
<path fill-rule="evenodd" clip-rule="evenodd" d="M38.9965 15.3975C40.0907 15.3975 41.14 15.8321 41.9136 16.6058C42.6873 17.3794 43.122 18.4287 43.122 19.5229V39.1874L54.8711 46.2391C55.3413 46.515 55.7521 46.8815 56.0799 47.3172C56.4076 47.7529 56.6457 48.2492 56.7804 48.7775C56.9151 49.3058 56.9438 49.8555 56.8647 50.395C56.7857 50.9344 56.6005 51.4528 56.3199 51.9202C56.0393 52.3877 55.6689 52.7948 55.2299 53.1182C54.791 53.4416 54.2923 53.6748 53.7627 53.8043C53.2332 53.9338 52.6831 53.957 52.1445 53.8726C51.6059 53.7883 51.0893 53.598 50.6247 53.3128L36.8733 45.0619C36.2627 44.6954 35.7573 44.177 35.4065 43.5572C35.0556 42.9374 34.8712 42.2373 34.8711 41.5251V19.5229C34.8711 18.4287 35.3058 17.3794 36.0794 16.6058C36.8531 15.8321 37.9024 15.3975 38.9965 15.3975Z" fill="#2859C5"/>
<path fill-rule="evenodd" clip-rule="evenodd" d="M8.74308 38.7749C8.742 32.4865 10.7005 26.354 14.3462 21.2303C17.9919 16.1066 23.1437 12.2463 29.085 10.1862C35.0264 8.12604 41.4621 7.96853 47.4971 9.73554C53.5321 11.5025 58.8665 15.1062 62.7585 20.0455L57.445 25.3535C57.0597 25.7378 56.7971 26.2278 56.6904 26.7614C56.5837 27.2951 56.6377 27.8484 56.8456 28.3513C57.0534 28.8542 57.4059 29.2842 57.8582 29.5867C58.3105 29.8893 58.8425 30.0509 59.3867 30.051H74.7497C75.4791 30.051 76.1787 29.7612 76.6945 29.2454C77.2102 28.7297 77.5 28.0301 77.5 27.3007V11.9322C77.501 11.3875 77.3402 10.8548 77.0381 10.4016C76.7359 9.94842 76.306 9.59515 75.8029 9.38658C75.2997 9.17801 74.746 9.12354 74.2118 9.23007C73.6777 9.3366 73.1872 9.59933 72.8025 9.98496L68.6221 14.1709C63.0781 7.49679 55.4425 2.89078 46.953 1.09955C38.4636 -0.691688 29.618 0.436857 21.8502 4.30223C14.0824 8.1676 7.84786 14.5432 4.15718 22.3955C0.466499 30.2478 -0.463932 39.1164 1.51672 47.5637C3.49737 56.0109 8.273 63.5416 15.0694 68.935C21.8658 74.3283 30.2846 77.2681 38.961 77.2778C47.6373 77.2875 56.0626 74.3664 62.8711 68.9883C69.6795 63.6101 74.4719 56.0901 76.4714 47.6472C76.7158 46.5847 76.5296 45.4686 75.9535 44.5429C75.3774 43.6172 74.4583 42.9572 73.3971 42.7071C72.3358 42.4571 71.2187 42.6373 70.2899 43.2084C69.3612 43.7796 68.6963 44.6951 68.4406 45.7551C66.7364 52.9775 62.4371 59.3217 56.3603 63.581C50.2836 67.8403 42.8533 69.7176 35.4827 68.8558C28.1121 67.994 21.3153 64.4532 16.3851 58.9069C11.4548 53.3606 8.73509 46.1957 8.74308 38.7749Z" fill="#8FBFFA"/>
</svg>
