<svg width="78" height="79" viewBox="0 0 78 79" fill="none" xmlns="http://www.w3.org/2000/svg">
<path fill-rule="evenodd" clip-rule="evenodd" d="M38.9965 16.3975C40.0907 16.3975 41.14 16.8321 41.9136 17.6058C42.6873 18.3794 43.122 19.4287 43.122 20.5229V40.1874L54.8711 47.2391C55.3413 47.515 55.7521 47.8815 56.0799 48.3172C56.4076 48.7529 56.6457 49.2492 56.7804 49.7775C56.9151 50.3058 56.9438 50.8555 56.8647 51.395C56.7857 51.9344 56.6005 52.4528 56.3199 52.9202C56.0393 53.3877 55.6689 53.7948 55.2299 54.1182C54.791 54.4416 54.2923 54.6748 53.7627 54.8043C53.2332 54.9338 52.6831 54.957 52.1445 54.8726C51.6059 54.7883 51.0893 54.598 50.6247 54.3128L36.8733 46.0619C36.2627 45.6954 35.7573 45.177 35.4065 44.5572C35.0556 43.9374 34.8712 43.2373 34.8711 42.5251V20.5229C34.8711 19.4287 35.3058 18.3794 36.0794 17.6058C36.8531 16.8321 37.9024 16.3975 38.9965 16.3975Z" fill="#8FBFFA"/>
<path fill-rule="evenodd" clip-rule="evenodd" d="M8.74308 39.7749C8.742 33.4865 10.7005 27.354 14.3462 22.2303C17.9919 17.1066 23.1437 13.2463 29.085 11.1862C35.0264 9.12604 41.4621 8.96853 47.4971 10.7355C53.5321 12.5025 58.8665 16.1062 62.7585 21.0455L57.445 26.3535C57.0597 26.7378 56.7971 27.2278 56.6904 27.7614C56.5837 28.2951 56.6377 28.8484 56.8456 29.3513C57.0534 29.8542 57.4059 30.2842 57.8582 30.5867C58.3105 30.8893 58.8425 31.0509 59.3867 31.051H74.7497C75.4791 31.051 76.1787 30.7612 76.6945 30.2454C77.2102 29.7297 77.5 29.0301 77.5 28.3007V12.9322C77.501 12.3875 77.3402 11.8548 77.0381 11.4016C76.7359 10.9484 76.306 10.5951 75.8029 10.3866C75.2997 10.178 74.746 10.1235 74.2118 10.2301C73.6777 10.3366 73.1872 10.5993 72.8025 10.985L68.6221 15.1709C63.0781 8.49679 55.4425 3.89078 46.953 2.09955C38.4636 0.308312 29.618 1.43686 21.8502 5.30223C14.0824 9.1676 7.84786 15.5432 4.15718 23.3955C0.466499 31.2478 -0.463932 40.1164 1.51672 48.5637C3.49737 57.0109 8.273 64.5416 15.0694 69.935C21.8658 75.3283 30.2846 78.2681 38.961 78.2778C47.6373 78.2875 56.0626 75.3664 62.8711 69.9883C69.6795 64.6101 74.4719 57.0901 76.4714 48.6472C76.7158 47.5847 76.5296 46.4686 75.9535 45.5429C75.3774 44.6172 74.4583 43.9572 73.3971 43.7071C72.3358 43.4571 71.2187 43.6373 70.2899 44.2084C69.3612 44.7796 68.6963 45.6951 68.4406 46.7551C66.7364 53.9775 62.4371 60.3217 56.3603 64.581C50.2836 68.8403 42.8533 70.7176 35.4827 69.8558C28.1121 68.994 21.3153 65.4532 16.3851 59.9069C11.4548 54.3606 8.73509 47.1957 8.74308 39.7749Z" fill="#8FBFFA"/>
</svg>
