<svg width="78" height="78" viewBox="0 0 78 78" fill="none" xmlns="http://www.w3.org/2000/svg">
<path d="M61.8393 51.8579C57.6295 56.0729 52.3773 59.0043 46.6893 60.4004L55.7596 76.1221C56.0313 76.5939 56.4366 76.9744 56.9242 77.2155C57.4119 77.4566 57.96 77.5476 58.4993 77.4768C59.0386 77.4061 59.5448 77.1769 59.9539 76.8181C60.3631 76.4593 60.6569 75.9871 60.798 75.4613L63.5978 65.0082L74.0378 67.806C74.5627 67.9468 75.1175 67.9288 75.6322 67.7542C76.1469 67.5796 76.5985 67.2563 76.9298 66.825C77.2611 66.3937 77.4574 65.8737 77.4938 65.3308C77.5303 64.7879 77.4052 64.2464 77.1346 63.7746L66.6845 45.6493C65.3393 47.8905 63.7168 49.978 61.8393 51.8579Z" fill="#2859C5"/>
<path d="M16.1607 51.8579C14.2829 49.9777 12.6603 47.89 11.315 45.6484L0.864445 63.7746C0.594472 64.2459 0.46982 64.7867 0.506182 65.3289C0.542543 65.8711 0.738294 66.3903 1.06879 66.8213C1.39928 67.2523 1.84975 67.5758 2.36346 67.751C2.87718 67.9262 3.43119 67.9453 3.95573 67.806L14.4012 65.0082L17.1955 75.4612C17.3366 75.9871 17.6304 76.4593 18.0395 76.8181C18.4487 77.1769 18.9549 77.4061 19.4942 77.4768C20.0335 77.5476 20.5816 77.4566 21.0693 77.2155C21.5569 76.9744 21.9622 76.5939 22.2339 76.1221L31.3067 60.3994C25.6203 59.0029 20.3695 56.0719 16.1607 51.8579Z" fill="#2859C5"/>
<path fill-rule="evenodd" clip-rule="evenodd" d="M19.0497 8.76702C24.3363 3.47374 31.5066 0.5 38.9831 0.5C46.4596 0.5 53.6299 3.47374 58.9165 8.76702C64.2032 14.0603 67.1732 21.2396 67.1732 28.7254C67.1732 36.2112 64.2032 43.3905 58.9165 48.6838C53.6299 53.977 46.4596 56.9508 38.9831 56.9508C31.5066 56.9508 24.3363 53.977 19.0497 48.6838C13.763 43.3905 10.793 36.2112 10.793 28.7254C10.793 21.2396 13.763 14.0603 19.0497 8.76702ZM43.8566 21.4116L40.0997 13.85H40.1052C39.9975 13.639 39.8328 13.4625 39.6299 13.3405C39.427 13.2186 39.194 13.1561 38.9574 13.1601C38.7207 13.1641 38.49 13.2345 38.2913 13.3633C38.0927 13.492 37.934 13.674 37.8335 13.8885L34.0767 21.4557C33.9931 21.6466 33.8606 21.8119 33.6924 21.9348C33.5243 22.0576 33.3266 22.1337 33.1196 22.1551L24.7753 23.3777C24.5456 23.4146 24.3305 23.5141 24.1536 23.6654C23.9767 23.8167 23.8449 24.0139 23.7727 24.2354C23.7005 24.4568 23.6907 24.6939 23.7443 24.9205C23.798 25.1472 23.913 25.3547 24.0767 25.5201L30.2263 31.424C30.3536 31.5803 30.4403 31.7657 30.4786 31.9636C30.517 32.1616 30.5059 32.366 30.4463 32.5586L29.0547 40.8692C29.0052 41.1084 29.0258 41.3568 29.114 41.5845C29.2022 41.8122 29.3542 42.0095 29.5519 42.1526C29.7495 42.2958 29.9842 42.3787 30.2278 42.3914C30.4714 42.404 30.7135 42.3459 30.9249 42.224L38.3506 38.2863C38.5432 38.1988 38.7523 38.1535 38.9639 38.1535C39.1754 38.1535 39.3845 38.1988 39.5772 38.2863L47.0029 42.224C47.2142 42.3459 47.4563 42.404 47.6999 42.3914C47.9435 42.3787 48.1782 42.2958 48.3759 42.1526C48.5735 42.0095 48.7256 41.8122 48.8138 41.5845C48.902 41.3568 48.9226 41.1084 48.873 40.8692L47.6959 32.5586C47.6044 32.3835 47.5565 32.1889 47.5565 31.9913C47.5565 31.7937 47.6044 31.5991 47.6959 31.424L53.851 25.5642C54.0277 25.4005 54.1542 25.1898 54.2155 24.9567C54.2767 24.7236 54.2703 24.4778 54.197 24.2483C54.1236 24.0187 53.9864 23.8149 53.8014 23.6607C53.6163 23.5065 53.3912 23.4083 53.1524 23.3777L44.8137 22.111C44.6066 22.0896 44.4089 22.0136 44.2408 21.8907C44.0727 21.7678 43.9401 21.6025 43.8566 21.4116Z" fill="#8FBFFA"/>
</svg>
