<svg width="78" height="78" viewBox="0 0 78 78" fill="none" xmlns="http://www.w3.org/2000/svg">
<path fill-rule="evenodd" clip-rule="evenodd" d="M62.2011 19.5203C61.1019 19.5203 60.0137 19.7399 59.0003 20.1663C57.9935 20.5899 57.0814 21.209 56.3161 21.9877L21.9985 56.0849C21.5371 56.5437 21.253 57.1505 21.1969 57.7986L19.7664 74.3034C19.6963 75.1127 19.9875 75.9115 20.5619 76.4865C21.1363 77.0608 21.9352 77.3518 22.7445 77.2814L39.2493 75.851C39.8974 75.7949 40.5046 75.511 40.9632 75.0494L75.0589 40.7338L75.0672 40.7256C75.8369 39.9601 76.4475 39.0503 76.8651 38.0482C77.2843 37.0426 77.5 35.964 77.5 34.8746C77.5 33.7851 77.2843 32.7065 76.8651 31.7009C76.4481 30.6991 75.8369 29.7896 75.0677 29.0243L68.1016 22.0032L68.0934 21.9952C67.3264 21.2129 66.4115 20.5913 65.402 20.1663C64.3886 19.7399 63.3004 19.5203 62.2011 19.5203Z" fill="#8FBFFA"/>
<path d="M17.1375 4.28223L17.1371 4.28373L17.0507 4.67734L17.0499 4.68069C15.6634 10.8894 10.6706 15.6537 4.39871 16.7448C0.533727 17.4172 0.533793 22.9655 4.39872 23.6379C10.6925 24.7329 15.6982 29.5266 17.0644 35.7671L17.0644 35.7672L17.1807 36.2988C17.9984 40.0339 23.3167 40.0572 24.1669 36.3293L24.167 36.3292L24.3083 35.7098C25.7257 29.4952 30.7357 24.7392 37.0155 23.6467C40.8903 22.9726 40.8903 17.4101 37.0155 16.736L37.1869 15.7508L37.0155 16.736C30.769 15.6493 25.7789 10.9378 24.3311 4.77174M17.1375 4.28223L24.3311 4.77174M17.1375 4.28223L17.1807 4.08395C17.9984 0.348789 23.3167 0.325575 24.1669 4.05341L24.2206 4.28983M17.1375 4.28223L24.2206 4.28983M24.3311 4.77174C24.2929 4.60912 24.2576 4.45303 24.2206 4.28983M24.3311 4.77174L24.2206 4.28983" fill="#8FBFFA" stroke="white" stroke-width="2"/>
</svg>
