<svg width="72" height="71" viewBox="0 0 72 71" fill="none" xmlns="http://www.w3.org/2000/svg">
<path d="M32.7257 29.5149H5.37314V64.9641C5.37314 66.3927 5.9251 67.7628 6.90759 68.773C7.89008 69.7832 9.22263 70.3507 10.6121 70.3507H32.7257V29.5149Z" fill="#8FBFFA"/>
<path d="M39.2744 70.3507V29.5149H66.6269V64.9641C66.6269 66.3927 66.0749 67.7628 65.0924 68.773C64.1099 69.7832 62.7774 70.3507 61.3879 70.3507H39.2744Z" fill="#8FBFFA"/>
<path fill-rule="evenodd" clip-rule="evenodd" d="M8.33506 15.0391C8.0827 14.2087 7.91301 13.3582 7.82827 12.4983C7.57421 9.77501 8.20407 6.66689 10.5806 4.21C12.9889 1.72845 16.6146 0.504933 21.0342 0.504933C27.3857 0.504933 32.1653 4.41228 35.1081 8.22095C35.4151 8.62057 35.7168 9.03498 36.0026 9.45433C36.2885 9.03498 36.5849 8.62057 36.9025 8.22095C39.8347 4.40241 44.6196 0.5 50.9658 0.5C55.3907 0.5 59.0111 1.72351 61.4194 4.21494C63.7906 6.66689 64.4258 9.77501 64.1717 12.5032C64.0873 13.3614 63.9181 14.2103 63.6665 15.0391H72V25.2164H0V15.0391H8.33506ZM30.3043 15.0391H16.9585C16.309 14.1402 15.8443 12.98 15.7359 11.8471C15.6195 10.5841 15.9582 9.71087 16.477 9.16819C16.9586 8.6699 18.1495 7.90027 21.0342 7.90027C23.6648 7.90027 26.3695 9.57273 28.6666 12.5427C29.2787 13.3357 29.8261 14.1701 30.3043 15.0391ZM55.043 15.0391H41.7022C42.1557 14.2185 42.6975 13.3666 43.3387 12.5378C45.6358 9.57767 48.3405 7.90027 50.9711 7.90027C53.8558 7.90027 55.0467 8.6699 55.5283 9.16819C56.0523 9.70594 56.3858 10.5841 56.2641 11.8471C56.1475 12.9911 55.7268 14.0878 55.043 15.0391Z" fill="#2859C5"/>
</svg>
