<svg width="41" height="41" viewBox="0 0 41 41" fill="none" xmlns="http://www.w3.org/2000/svg">
<g clip-path="url(#clip0_1_46)">
<path d="M37.4 32.2H19.2L8.8 40V32.2H3.6C2.91045 32.2 2.24911 31.9261 1.76152 31.4385C1.27393 30.951 1 30.2895 1 29.6V3.6C1 2.91045 1.27393 2.24911 1.76152 1.76152C2.24911 1.27393 2.91045 1 3.6 1H37.4C38.0895 1 38.751 1.27393 39.2385 1.76152C39.7261 2.24911 40 2.91045 40 3.6V29.6C40 30.2895 39.7261 30.951 39.2385 31.4385C38.751 31.9261 38.0895 32.2 37.4 32.2Z" stroke="black" stroke-width="1.2" stroke-linecap="round" stroke-linejoin="round"/>
<path d="M14 13.7994C14.0002 12.9194 14.2775 12.0564 14.8017 11.3046C15.3261 10.5529 16.0768 9.94139 16.9724 9.53696C17.8678 9.13253 18.8736 8.95073 19.8793 9.01144C20.8853 9.07213 21.8527 9.373 22.6759 9.88114C23.4991 10.3893 24.1464 11.0852 24.547 11.8927C24.9478 12.7002 25.0864 13.5884 24.9478 14.46C24.8092 15.3317 24.3989 16.1534 23.7614 16.8352C23.124 17.517 22.2839 18.0328 21.3334 18.3261C20.7973 18.4915 20.3331 18.7979 20.0047 19.2032C19.6764 19.6084 19.5 20.0924 19.5 20.5888V21" stroke="black" stroke-width="1.5" stroke-linecap="round" stroke-linejoin="round"/>
<path d="M19 25C19.5523 25 20 25 20 25C20 25 19.5523 25 19 25" stroke="black" stroke-width="1.5"/>
</g>
<defs>
<clipPath id="clip0_1_46">
<rect width="41" height="41" fill="white"/>
</clipPath>
</defs>
</svg>
