<svg width="24" height="24" viewBox="0 0 24 24" fill="none" xmlns="http://www.w3.org/2000/svg">
<path d="M2.6 12.5C2.6 10.0084 2.60127 8.19969 2.78683 6.81916C2.97007 5.45583 3.32308 4.60029 3.96169 3.96169C4.60032 3.32305 5.45561 2.97007 6.81875 2.78683C8.19914 2.60127 10.0078 2.6 12.5 2.6C14.9916 2.6 16.8003 2.60127 18.1808 2.78683C19.5442 2.97007 20.3997 3.32308 21.0383 3.96169C21.6769 4.60032 22.0299 5.45561 22.2132 6.81875C22.3987 8.19914 22.4 10.0078 22.4 12.5C22.4 14.9916 22.3987 16.8003 22.2132 18.1808C22.0299 19.5442 21.6769 20.3997 21.0383 21.0383C20.3997 21.6769 19.5444 22.0299 18.1812 22.2132C16.8009 22.3987 14.9922 22.4 12.5 22.4C10.0084 22.4 8.19969 22.3987 6.81916 22.2132C5.45583 22.0299 4.60029 21.6769 3.96168 21.0383C3.32305 20.3997 2.97007 19.5444 2.78683 18.1812C2.60127 16.8009 2.6 14.9922 2.6 12.5Z" stroke="#748DC5" stroke-width="1.2" stroke-linecap="round" stroke-linejoin="round"/>
<path d="M15.9199 12.8474C15.9199 13.9438 15.4842 14.9953 14.7088 15.7707C13.9334 16.546 12.8816 16.9816 11.7849 16.9816C10.6882 16.9816 9.6365 16.546 8.86106 15.7707C8.08562 14.9953 7.65 13.9438 7.65 12.8474C7.65 11.7509 8.08562 10.6994 8.86106 9.92407C9.6365 9.14875 10.6882 8.71316 11.7849 8.71316C12.8816 8.71316 13.9334 9.14875 14.7088 9.92407C15.4842 10.6994 15.9199 11.7509 15.9199 12.8474Z" stroke="#748DC5" stroke-width="1.3" stroke-linecap="round" stroke-linejoin="round"/>
</svg>
