<svg width="78" height="79" viewBox="0 0 78 79" fill="none" xmlns="http://www.w3.org/2000/svg">
<path fill-rule="evenodd" clip-rule="evenodd" d="M62.2011 20.5203C61.1019 20.5203 60.0137 20.7399 59.0003 21.1663C57.9935 21.5899 57.0814 22.209 56.3161 22.9877L21.9985 57.0849C21.5371 57.5437 21.253 58.1505 21.1969 58.7986L19.7664 75.3034C19.6963 76.1127 19.9875 76.9115 20.5619 77.4865C21.1363 78.0608 21.9352 78.3518 22.7445 78.2814L39.2493 76.851C39.8974 76.7949 40.5046 76.511 40.9632 76.0494L75.0589 41.7338L75.0672 41.7256C75.8369 40.9601 76.4475 40.0503 76.8651 39.0482C77.2843 38.0426 77.5 36.964 77.5 35.8746C77.5 34.7851 77.2843 33.7065 76.8651 32.7009C76.4481 31.6991 75.8369 30.7896 75.0677 30.0243L68.1016 23.0032L68.0934 22.9952C67.3264 22.2129 66.4115 21.5913 65.402 21.1663C64.3886 20.7399 63.3004 20.5203 62.2011 20.5203Z" fill="#8FBFFA"/>
<path fill-rule="evenodd" clip-rule="evenodd" d="M25.1419 4.83104C24.0541 0.0616914 17.2499 0.0914332 16.2038 4.87011L16.1604 5.06913L16.074 5.46274C14.7756 11.2765 10.1003 15.7379 4.22732 16.7596C-0.74246 17.6242 -0.742421 24.7585 4.22732 25.6231C10.1208 26.6484 14.8083 31.1373 16.0875 36.981L16.2038 37.5126C17.2499 42.2913 24.0541 42.321 25.1419 37.5517L25.2832 36.9321C26.6111 31.1106 31.3042 26.6554 37.1869 25.6319C42.1665 24.7656 42.1665 17.6171 37.1869 16.7508C31.3354 15.7328 26.6608 11.3193 25.3046 5.54316C25.2675 5.38501 25.233 5.23272 25.1959 5.06897L25.1419 4.83104Z" fill="#2859C5"/>
</svg>
