<svg width="83" height="79" viewBox="0 0 83 79" fill="none" xmlns="http://www.w3.org/2000/svg">
<path d="M0 39.8729H10.1365C13.0263 39.8728 15.8878 40.442 18.5575 41.5481C21.2272 42.6541 23.6529 44.2752 25.696 46.3189L36.19 56.7099C36.96 59.7899 33.88 65.1799 28.49 62.8699L17.71 53.6299L13.86 58.2499C13.86 58.2499 24.64 68.1899 26.95 69.0299C34.65 71.8299 40.81 62.0999 40.81 62.0999L57.75 61.8729C59.938 61.8729 62.0365 62.7421 63.5836 64.2893C65.1308 65.8365 66 67.9349 66 70.1229C66 72.311 65.1308 74.4094 63.5836 75.9566C62.0365 77.5037 59.938 78.3729 57.75 78.3729H25.6135C22.7237 78.373 19.8622 77.8038 17.1925 76.6978C14.5228 75.5918 12.0971 73.9706 10.054 71.9269L0 61.8729V39.8729Z" fill="#8FBFFA"/>
<path fill-rule="evenodd" clip-rule="evenodd" d="M55.165 4.12295C54.7874 3.71768 54.332 3.39261 53.826 3.16716C53.32 2.9417 52.7737 2.82047 52.2199 2.8107C51.666 2.80093 51.1158 2.90281 50.6022 3.11028C50.0886 3.31775 49.622 3.62654 49.2303 4.01824C48.8386 4.40995 48.5298 4.87653 48.3223 5.39017C48.1149 5.9038 48.013 6.45396 48.0227 7.00783C48.0325 7.56169 48.1537 8.10792 48.3792 8.61391C48.6047 9.11991 48.9297 9.57531 49.335 9.95295L53.295 13.913H41.25C40.5207 13.913 39.8212 14.2027 39.3055 14.7184C38.7897 15.2341 38.5 15.9336 38.5 16.663V44.163C38.5 44.8923 38.7897 45.5918 39.3055 46.1075C39.8212 46.6232 40.5207 46.913 41.25 46.913H79.75C80.4794 46.913 81.1788 46.6232 81.6946 46.1075C82.2103 45.5918 82.5 44.8923 82.5 44.163V16.663C82.5 15.9336 82.2103 15.2341 81.6946 14.7184C81.1788 14.2027 80.4794 13.913 79.75 13.913H67.705L71.665 9.95295C72.3936 9.17099 72.7903 8.13674 72.7715 7.06808C72.7526 5.99942 72.3197 4.97981 71.5639 4.22403C70.8082 3.46826 69.7885 3.03535 68.7199 3.01649C67.6512 2.99764 66.617 3.39431 65.835 4.12295L60.5 9.45796L55.165 4.12295Z" fill="#8FBFFA"/>
</svg>
