<svg width="83" height="77" viewBox="0 0 83 77" fill="none" xmlns="http://www.w3.org/2000/svg">
<path d="M0 37.8729H10.1365C13.0263 37.8728 15.8878 38.442 18.5575 39.5481C21.2272 40.6541 23.6529 42.2752 25.696 44.3189L36.19 54.7099C36.96 57.7899 33.88 63.1799 28.49 60.8699L17.71 51.6299L13.86 56.2499C13.86 56.2499 24.64 66.1899 26.95 67.0299C34.65 69.8299 40.81 60.0999 40.81 60.0999L57.75 59.8729C59.938 59.8729 62.0365 60.7421 63.5836 62.2893C65.1308 63.8365 66 65.9349 66 68.1229C66 70.311 65.1308 72.4094 63.5836 73.9566C62.0365 75.5037 59.938 76.3729 57.75 76.3729H25.6135C22.7237 76.373 19.8622 75.8038 17.1925 74.6978C14.5228 73.5918 12.0971 71.9706 10.054 69.9269L0 59.8729V37.8729Z" fill="#8FBFFA"/>
<path fill-rule="evenodd" clip-rule="evenodd" d="M55.165 2.12295C54.7874 1.71768 54.332 1.39261 53.826 1.16716C53.32 0.941703 52.7737 0.820473 52.2199 0.810701C51.666 0.800928 51.1158 0.902814 50.6022 1.11028C50.0886 1.31775 49.622 1.62654 49.2303 2.01824C48.8386 2.40995 48.5298 2.87653 48.3223 3.39017C48.1149 3.9038 48.013 4.45396 48.0227 5.00783C48.0325 5.56169 48.1537 6.10792 48.3792 6.61391C48.6047 7.11991 48.9297 7.57531 49.335 7.95295L53.295 11.913H41.25C40.5207 11.913 39.8212 12.2027 39.3055 12.7184C38.7897 13.2341 38.5 13.9336 38.5 14.663V42.163C38.5 42.8923 38.7897 43.5918 39.3055 44.1075C39.8212 44.6232 40.5207 44.913 41.25 44.913H79.75C80.4794 44.913 81.1788 44.6232 81.6946 44.1075C82.2103 43.5918 82.5 42.8923 82.5 42.163V14.663C82.5 13.9336 82.2103 13.2341 81.6946 12.7184C81.1788 12.2027 80.4794 11.913 79.75 11.913H67.705L71.665 7.95295C72.3936 7.17099 72.7903 6.13674 72.7715 5.06808C72.7526 3.99942 72.3197 2.97981 71.5639 2.22403C70.8082 1.46826 69.7885 1.03535 68.7199 1.01649C67.6512 0.997637 66.617 1.39431 65.835 2.12295L60.5 7.45796L55.165 2.12295Z" fill="#2859C5"/>
</svg>
