<svg width="77" height="78" viewBox="0 0 77 78" fill="none" xmlns="http://www.w3.org/2000/svg">
<path d="M35.7257 32.5149H8.37314V67.9641C8.37314 69.3927 8.9251 70.7628 9.90759 71.773C10.8901 72.7832 12.2226 73.3507 13.6121 73.3507H35.7257V32.5149Z" fill="#8FBFFA"/>
<path d="M42.2744 73.3507V32.5149H69.6269V67.9641C69.6269 69.3927 69.0749 70.7628 68.0924 71.773C67.1099 72.7832 65.7774 73.3507 64.3879 73.3507H42.2744Z" fill="#8FBFFA"/>
<path fill-rule="evenodd" clip-rule="evenodd" d="M11.3351 18.0391C11.0827 17.2087 10.913 16.3582 10.8283 15.4983C10.5742 12.775 11.2041 9.66689 13.5806 7.21C15.9889 4.72845 19.6146 3.50493 24.0342 3.50493C30.3857 3.50493 35.1653 7.41228 38.1081 11.221C38.4151 11.6206 38.7168 12.035 39.0026 12.4543C39.2885 12.035 39.5849 11.6206 39.9025 11.221C42.8347 7.40241 47.6196 3.5 53.9658 3.5C58.3907 3.5 62.0111 4.72351 64.4194 7.21494C66.7906 9.66689 67.4258 12.775 67.1717 15.5032C67.0873 16.3614 66.9181 17.2103 66.6665 18.0391H75V28.2164H3V18.0391H11.3351ZM33.3043 18.0391H19.9585C19.309 17.1402 18.8443 15.98 18.7359 14.8471C18.6195 13.5841 18.9582 12.7109 19.477 12.1682C19.9586 11.6699 21.1495 10.9003 24.0342 10.9003C26.6648 10.9003 29.3695 12.5727 31.6666 15.5427C32.2787 16.3357 32.8261 17.1701 33.3043 18.0391ZM58.043 18.0391H44.7022C45.1557 17.2185 45.6975 16.3666 46.3387 15.5378C48.6358 12.5777 51.3405 10.9003 53.9711 10.9003C56.8558 10.9003 58.0467 11.6699 58.5283 12.1682C59.0523 12.7059 59.3858 13.5841 59.2641 14.8471C59.1475 15.9911 58.7268 17.0878 58.043 18.0391Z" fill="#8FBFFA"/>
</svg>
