<svg width="240" height="36" viewBox="0 0 240 36" fill="none" xmlns="http://www.w3.org/2000/svg">
<path d="M17.3774 13.798C17.3774 12.202 16.8874 11.04 15.9074 10.312C14.9554 9.556 13.4994 9.178 11.5394 9.178H1.50137C0.913367 9.178 0.619367 8.898 0.619367 8.338V2.5C0.619367 1.94 0.913367 1.66 1.50137 1.66H11.5394C15.9914 1.66 19.4494 2.654 21.9134 4.642C24.3774 6.602 25.6094 9.416 25.6094 13.084V13.924C25.6094 15.8 25.2874 17.494 24.6434 19.006C24.0274 20.49 23.1174 21.764 21.9134 22.828C20.7094 23.864 19.2254 24.662 17.4614 25.222C15.7254 25.782 13.7514 26.062 11.5394 26.062C11.3154 26.062 11.0774 26.062 10.8254 26.062C10.6014 26.062 10.3634 26.048 10.1114 26.02V33.79C10.1114 34.35 9.81737 34.63 9.22937 34.63H2.34137C1.78137 34.63 1.50137 34.35 1.50137 33.79V11.278C1.50137 10.718 1.78137 10.438 2.34137 10.438H9.22937C9.81737 10.438 10.1114 10.718 10.1114 11.278V18.502C10.3634 18.53 10.6014 18.544 10.8254 18.544C11.0774 18.544 11.3154 18.544 11.5394 18.544C13.4994 18.544 14.9554 18.166 15.9074 17.41C16.8874 16.654 17.3774 15.45 17.3774 13.798ZM37.162 33.748C37.162 34.336 36.882 34.63 36.322 34.63H29.602C29.042 34.63 28.762 34.336 28.762 33.748V12.538C28.762 12.006 29.042 11.74 29.602 11.74H36.28C36.868 11.74 37.162 12.006 37.162 12.538V13.672C38.394 12.58 39.626 11.922 40.858 11.698C42.118 11.446 43.392 11.32 44.68 11.32C45.268 11.32 45.562 11.586 45.562 12.118V18.418C45.562 19.006 45.282 19.3 44.722 19.3C43.938 19.3 43.21 19.328 42.538 19.384C41.894 19.44 41.278 19.552 40.69 19.72C40.102 19.888 39.514 20.126 38.926 20.434C38.366 20.714 37.778 21.106 37.162 21.61V33.748ZM56.08 33.748C56.08 34.336 55.8 34.63 55.24 34.63H48.52C47.96 34.63 47.68 34.336 47.68 33.748V12.538C47.68 12.006 47.96 11.74 48.52 11.74H55.198C55.786 11.74 56.08 12.006 56.08 12.538V33.748ZM48.562 8.59C47.974 8.59 47.68 8.31 47.68 7.75V1.702C47.68 1.114 47.974 0.819999 48.562 0.819999H55.198C55.786 0.819999 56.08 1.114 56.08 1.702V7.75C56.08 8.31 55.786 8.59 55.198 8.59H48.562ZM68.1357 33.748C68.1357 34.336 67.8557 34.63 67.2957 34.63H60.7017C60.1417 34.63 59.8617 34.336 59.8617 33.748V12.538C59.8617 12.006 60.1417 11.74 60.7017 11.74H67.2957C67.8557 11.74 68.1357 12.006 68.1357 12.538V13.042C68.7797 12.566 69.5637 12.202 70.4877 11.95C71.4397 11.67 72.3777 11.53 73.3017 11.53C76.3537 11.53 78.7197 12.482 80.3997 14.386C82.1077 16.262 82.9617 19.034 82.9617 22.702V33.748C82.9617 34.336 82.6817 34.63 82.1217 34.63H75.5697C75.0097 34.63 74.7297 34.336 74.7297 33.748V22.996C74.7297 21.4 74.4077 20.238 73.7637 19.51C73.1477 18.782 72.1677 18.418 70.8237 18.418C70.4317 18.418 69.9837 18.488 69.4797 18.628C68.9757 18.768 68.5277 19.006 68.1357 19.342V33.748ZM88.6169 11.74V6.868C88.6169 6.336 88.9109 6.07 89.4989 6.07H96.1769C96.7369 6.07 97.0169 6.336 97.0169 6.868V11.74H101.595C102.183 11.74 102.477 12.02 102.477 12.58V18.166C102.477 18.754 102.183 19.048 101.595 19.048H97.0169V25.768C97.0169 26.58 97.1709 27.126 97.4789 27.406C97.7869 27.686 98.2629 27.826 98.9069 27.826H101.679C101.903 27.826 102.099 27.896 102.267 28.036C102.435 28.176 102.519 28.4 102.519 28.708V34.42C102.519 34.98 102.239 35.26 101.679 35.26H98.9069C97.0029 35.26 95.3929 35.078 94.0769 34.714C92.7889 34.35 91.7389 33.776 90.9269 32.992C90.1149 32.18 89.5269 31.13 89.1629 29.842C88.7989 28.554 88.6169 26.986 88.6169 25.138V19.048H86.3489C85.7609 19.048 85.4669 18.754 85.4669 18.166V12.58C85.4669 12.02 85.7609 11.74 86.3489 11.74H88.6169ZM131.206 22.198L138.514 2.374C138.598 2.122 138.696 1.94 138.808 1.828C138.92 1.716 139.13 1.66 139.438 1.66H146.578C147.166 1.66 147.46 1.926 147.46 2.458V33.748C147.46 34.336 147.18 34.63 146.62 34.63H140.278C139.718 34.63 139.438 34.336 139.438 33.748V19.72L134.818 31.816C134.734 32.068 134.636 32.25 134.524 32.362C134.412 32.474 134.202 32.53 133.894 32.53H128.518C128.21 32.53 128 32.474 127.888 32.362C127.804 32.222 127.706 32.04 127.594 31.816L115.036 2.794C114.896 2.486 114.882 2.22 114.994 1.996C115.134 1.772 115.372 1.66 115.708 1.66H122.848C123.352 1.66 123.702 1.884 123.898 2.332L131.206 22.198ZM114.952 8.632C114.952 8.324 115.106 8.142 115.414 8.086C115.722 8.03 115.946 8.156 116.086 8.464L122.596 23.542C122.736 23.85 122.834 24.116 122.89 24.34C122.946 24.564 122.974 24.816 122.974 25.096V33.832C122.974 34.364 122.694 34.63 122.134 34.63H115.834C115.246 34.63 114.952 34.364 114.952 33.832V8.632ZM174.172 33.79C174.172 34.35 173.892 34.63 173.332 34.63H166.654C166.066 34.63 165.772 34.35 165.772 33.79V19.132C165.408 18.88 165.03 18.698 164.638 18.586C164.246 18.474 163.868 18.418 163.504 18.418C162.16 18.418 161.11 18.782 160.354 19.51C159.626 20.238 159.262 21.4 159.262 22.996C159.262 24.648 159.626 25.852 160.354 26.608C161.11 27.336 162.16 27.7 163.504 27.7H163.672C164.232 27.7 164.512 27.994 164.512 28.582V33.79C164.512 34.35 164.232 34.63 163.672 34.63H163.504C161.6 34.63 159.878 34.406 158.338 33.958C156.798 33.51 155.482 32.824 154.39 31.9C153.326 30.976 152.5 29.828 151.912 28.456C151.324 27.056 151.03 25.418 151.03 23.542V22.702C151.03 20.882 151.296 19.272 151.828 17.872C152.36 16.472 153.088 15.31 154.012 14.386C154.936 13.434 156.028 12.72 157.288 12.244C158.576 11.768 159.962 11.53 161.446 11.53C162.174 11.53 162.916 11.642 163.672 11.866C164.456 12.062 165.156 12.384 165.772 12.832V12.58C165.772 12.02 166.066 11.74 166.654 11.74H173.332C173.892 11.74 174.172 12.02 174.172 12.58V33.79ZM186.22 33.748C186.22 34.336 185.94 34.63 185.38 34.63H178.786C178.226 34.63 177.946 34.336 177.946 33.748V12.538C177.946 12.006 178.226 11.74 178.786 11.74H185.38C185.94 11.74 186.22 12.006 186.22 12.538V13.042C186.864 12.566 187.648 12.202 188.572 11.95C189.524 11.67 190.462 11.53 191.386 11.53C194.438 11.53 196.804 12.482 198.484 14.386C200.192 16.262 201.046 19.034 201.046 22.702V33.748C201.046 34.336 200.766 34.63 200.206 34.63H193.654C193.094 34.63 192.814 34.336 192.814 33.748V22.996C192.814 21.4 192.492 20.238 191.848 19.51C191.232 18.782 190.252 18.418 188.908 18.418C188.516 18.418 188.068 18.488 187.564 18.628C187.06 18.768 186.612 19.006 186.22 19.342V33.748ZM213.211 33.748C213.211 34.336 212.931 34.63 212.371 34.63H205.651C205.091 34.63 204.811 34.336 204.811 33.748V12.538C204.811 12.006 205.091 11.74 205.651 11.74H212.329C212.917 11.74 213.211 12.006 213.211 12.538V33.748ZM205.693 8.59C205.105 8.59 204.811 8.31 204.811 7.75V1.702C204.811 1.114 205.105 0.819999 205.693 0.819999H212.329C212.917 0.819999 213.211 1.114 213.211 1.702V7.75C213.211 8.31 212.917 8.59 212.329 8.59H205.693ZM239.715 33.79C239.715 34.35 239.435 34.63 238.875 34.63H232.197C231.609 34.63 231.315 34.35 231.315 33.79V19.132C230.951 18.88 230.573 18.698 230.181 18.586C229.789 18.474 229.411 18.418 229.047 18.418C227.703 18.418 226.653 18.782 225.897 19.51C225.169 20.238 224.805 21.4 224.805 22.996C224.805 24.648 225.169 25.852 225.897 26.608C226.653 27.336 227.703 27.7 229.047 27.7H229.215C229.775 27.7 230.055 27.994 230.055 28.582V33.79C230.055 34.35 229.775 34.63 229.215 34.63H229.047C227.143 34.63 225.421 34.406 223.881 33.958C222.341 33.51 221.025 32.824 219.933 31.9C218.869 30.976 218.043 29.828 217.455 28.456C216.867 27.056 216.573 25.418 216.573 23.542V22.702C216.573 20.882 216.839 19.272 217.371 17.872C217.903 16.472 218.631 15.31 219.555 14.386C220.479 13.434 221.571 12.72 222.831 12.244C224.119 11.768 225.505 11.53 226.989 11.53C227.717 11.53 228.459 11.642 229.215 11.866C229.999 12.062 230.699 12.384 231.315 12.832V12.58C231.315 12.02 231.609 11.74 232.197 11.74H238.875C239.435 11.74 239.715 12.02 239.715 12.58V33.79Z" fill="#CAD1E2"/>
</svg>
