<svg width="26" height="25" viewBox="0 0 26 25" fill="none" xmlns="http://www.w3.org/2000/svg">
<path d="M16.5872 16.6303L24.654 24.361C24.8534 24.5521 25.1699 24.5453 25.361 24.346C25.5521 24.1466 25.5453 23.8301 25.346 23.639L17.3082 15.9362C18.031 15.1621 18.6137 14.2745 19.0297 13.3102C19.5137 12.1881 19.7624 10.9848 19.7608 9.76922L16.5872 16.6303ZM16.5872 16.6303C15.7725 17.3353 14.8376 17.9013 13.8229 18.3033C12.6577 18.765 11.4096 19.0015 10.1498 18.9999M16.5872 16.6303L10.1498 18.9999M10.1498 18.9999C4.83508 18.9996 0.500007 14.899 0.500007 9.76922M10.1498 18.9999L0.500007 9.76922M0.500007 9.76922C0.500007 9.76943 0.500007 9.76964 0.500007 9.76985L1.00001 9.76922H0.500007ZM0.500007 9.76922C0.498555 8.54866 0.748352 7.34035 1.2345 6.21365C1.72071 5.08682 2.43349 4.0644 3.33093 3.20435C4.22833 2.34435 5.29279 1.66352 6.46283 1.19986C7.63276 0.736242 8.88594 0.49858 10.1508 0.500006M0.500007 9.76922L10.1508 0.500006M10.1508 0.500006C15.4498 0.500157 19.7604 4.62455 19.7608 9.76851L10.1508 0.500006ZM10.1508 0.500006C10.1509 0.500006 10.151 0.500007 10.1511 0.500007L10.1505 1.00001L10.1508 0.500006Z" stroke="black" stroke-linecap="round" stroke-linejoin="round"/>
</svg>
